<?xml version="1.0" encoding="UTF-8"?>
<!DOCTYPE svg PUBLIC "-//W3C//DTD SVG 1.1//EN" "http://www.w3.org/Graphics/SVG/1.1/DTD/svg11.dtd">
<svg xmlns="http://www.w3.org/2000/svg" version="1.1" width="586px" height="425px" style="shape-rendering:geometricPrecision; text-rendering:geometricPrecision; image-rendering:optimizeQuality; fill-rule:evenodd; clip-rule:evenodd" xmlns:xlink="http://www.w3.org/1999/xlink">
<g><path style="opacity:0.966" fill="#000000" d="M 347.5,299.5 C 347.089,301.772 345.922,302.105 344,300.5C 342.629,301.581 341.129,302.415 339.5,303C 340.907,304.452 342.407,304.285 344,302.5C 344.374,303.416 344.874,304.25 345.5,305C 343,305.833 342.833,307 345,308.5C 345.399,308.272 345.565,307.938 345.5,307.5C 349.43,308.721 353.43,309.221 357.5,309C 355.595,308.174 355.261,307.007 356.5,305.5C 358.23,306.026 359.564,307.026 360.5,308.5C 362.421,309.641 364.421,309.808 366.5,309C 364.981,307.649 363.648,306.149 362.5,304.5C 365.624,303.871 367.958,305.204 369.5,308.5C 372.106,309.652 374.773,309.818 377.5,309C 376.1,305.598 373.933,302.764 371,300.5C 370.409,299.517 370.743,298.85 372,298.5C 376.686,300.353 379.852,303.687 381.5,308.5C 383.636,309.793 385.636,309.793 387.5,308.5C 388.117,308.389 388.617,308.056 389,307.5C 390.173,310.41 392.006,311.077 394.5,309.5C 395.167,309.5 395.833,309.5 396.5,309.5C 395.752,311.332 394.752,312.999 393.5,314.5C 392.022,314.238 390.689,314.571 389.5,315.5C 386.1,321.2 381.433,325.533 375.5,328.5C 374.167,327.5 374.167,326.5 375.5,325.5C 379.272,322.64 382.605,319.306 385.5,315.5C 384.277,314.386 382.944,314.219 381.5,315C 378.593,318.575 375.093,321.408 371,323.5C 369.743,323.15 369.409,322.483 370,321.5C 371.833,319.667 373.667,317.833 375.5,316C 373.833,315.333 372.167,315.333 370.5,316C 368.86,318.339 366.86,319.172 364.5,318.5C 364.977,317.522 365.643,316.689 366.5,316C 365.5,315.833 364.5,315.667 363.5,315.5C 361.319,316.871 358.986,317.871 356.5,318.5C 356.33,317.178 356.663,316.011 357.5,315C 354.57,313.682 351.57,313.015 348.5,313C 363.648,329.576 382.315,338.576 404.5,340C 413.426,337.504 419.926,332.338 424,324.5C 421.985,323.303 420.151,321.97 418.5,320.5C 419.999,318.637 421.666,317.971 423.5,318.5C 424.043,318.44 424.376,318.107 424.5,317.5C 422.073,312.971 419.406,308.638 416.5,304.5C 412.861,299.39 408.361,295.057 403,291.5C 402.283,292.044 401.783,292.711 401.5,293.5C 399.426,292.486 397.426,291.486 395.5,290.5C 395.417,288.43 394.417,288.097 392.5,289.5C 390.971,289.471 389.804,288.804 389,287.5C 388.25,288.126 387.416,288.626 386.5,289C 387.416,289.278 388.082,289.778 388.5,290.5C 385.126,290.674 381.793,291.174 378.5,292C 371.817,295.606 365.151,299.106 358.5,302.5C 357.571,301.685 356.571,300.852 355.5,300C 356.412,298.375 355.745,297.541 353.5,297.5C 359.427,294.092 365.26,290.425 371,286.5C 379.078,272.217 381.745,256.884 379,240.5C 375.976,223.123 369.142,207.457 358.5,193.5C 390.833,192.167 423.167,192.167 455.5,193.5C 448.704,206.071 444.538,219.404 443,233.5C 444.116,230.244 445.949,227.578 448.5,225.5C 448.489,227.017 447.823,228.184 446.5,229C 447.167,229.333 447.833,229.667 448.5,230C 446.709,230.415 445.376,231.415 444.5,233C 447.838,234.206 449.671,233.04 450,229.5C 450.333,229.833 450.667,230.167 451,230.5C 451.816,229.177 452.983,228.511 454.5,228.5C 452.306,230.9 450.639,233.566 449.5,236.5C 448.603,237.598 447.77,237.598 447,236.5C 445.956,237.623 445.29,238.956 445,240.5C 444.667,240.167 444.333,239.833 444,239.5C 441.545,241.428 441.378,243.262 443.5,245C 442.167,246 442.167,247 443.5,248C 442.423,248.47 441.423,248.303 440.5,247.5C 440.404,243.689 439.738,243.689 438.5,247.5C 437.833,247.167 437.167,246.833 436.5,246.5C 420.124,255.663 413.457,269.663 416.5,288.5C 416.508,294.208 416.008,294.541 415,289.5C 414.545,293.814 415.545,297.814 418,301.5C 424.26,306.25 428.76,312.25 431.5,319.5C 430.182,321.912 430.349,324.246 432,326.5C 437.493,318.426 437.326,310.426 431.5,302.5C 433.167,301.5 434.5,300.167 435.5,298.5C 436.927,300.148 437.76,302.148 438,304.5C 438.667,303.167 439.333,303.167 440,304.5C 440.784,314.666 444.284,323.999 450.5,332.5C 448.281,333.54 446.281,333.04 444.5,331C 445.258,329.636 444.758,328.469 443,327.5C 442.601,327.728 442.435,328.062 442.5,328.5C 440.102,325.539 438.436,325.872 437.5,329.5C 438.579,347.426 447.913,355.259 465.5,353C 469.919,352.138 474.253,350.971 478.5,349.5C 486.737,354.715 493.403,353.382 498.5,345.5C 499.548,347.971 498.881,350.137 496.5,352C 496.63,353.059 497.13,353.892 498,354.5C 500.428,350.608 502.928,346.774 505.5,343C 505.835,341.836 505.835,340.503 505.5,339C 506.448,338.517 507.448,338.351 508.5,338.5C 506.67,346.324 502.67,352.824 496.5,358C 494.13,359.036 491.63,359.536 489,359.5C 484.639,359.232 480.473,358.232 476.5,356.5C 475.537,355.637 475.537,354.97 476.5,354.5C 478.551,354.522 480.717,355.189 483,356.5C 484.5,356 486,355.5 487.5,355C 484.203,353.255 480.703,352.088 477,351.5C 473.483,353.259 469.983,355.092 466.5,357C 468.88,356.478 471.213,356.645 473.5,357.5C 465.521,360.874 457.355,361.207 449,358.5C 447.771,363.529 445.771,368.196 443,372.5C 438.524,377.066 433.857,381.399 429,385.5C 424.704,395.489 419.037,396.156 412,387.5C 405.199,375.033 402.366,361.699 403.5,347.5C 393.247,347.949 383.58,345.783 374.5,341C 364.839,335.833 355.839,329.667 347.5,322.5C 338.409,323.866 329.243,324.533 320,324.5C 270.5,323.905 221,323.239 171.5,322.5C 184.041,304.244 187.541,284.244 182,262.5C 178.757,251.104 174.924,239.937 170.5,229C 141.494,228.167 112.494,228.333 83.5,229.5C 72.8687,250.476 69.702,272.476 74,295.5C 77.2435,306.564 83.4102,315.564 92.5,322.5C 66.8398,323.666 41.1732,323.833 15.5,323C 32.0325,305.096 44.5325,284.596 53,261.5C 77.8713,191.719 103.038,122.052 128.5,52.5C 144.167,51.1667 159.833,51.1667 175.5,52.5C 181.712,69.972 188.212,87.3053 195,104.5C 218.814,72.1575 250.648,52.3242 290.5,45C 320.158,40.3805 349.824,40.3805 379.5,45C 394.547,48.0124 409.547,51.1791 424.5,54.5C 427.513,79.8097 430.013,105.143 432,130.5C 429.304,132.342 426.471,132.675 423.5,131.5C 409.607,111.934 393.94,93.7676 376.5,77C 352.059,57.4488 325.059,53.1155 295.5,64C 276.284,73.8848 263.117,89.0515 256,109.5C 248.161,134.203 244.328,159.536 244.5,185.5C 244.034,213.368 248.534,240.368 258,266.5C 274.329,299.582 300.829,312.915 337.5,306.5C 338.112,300.217 341.445,297.883 347.5,299.5 Z M 127.5,106.5 C 140.187,140.884 152.52,175.55 164.5,210.5C 139.5,211.833 114.5,211.833 89.5,210.5C 102.177,175.818 114.843,141.151 127.5,106.5 Z M 388.5,290.5 C 390.833,290.5 393.167,290.5 395.5,290.5C 397.426,291.486 399.426,292.486 401.5,293.5C 406.804,296.812 411.804,300.479 416.5,304.5C 419.406,308.638 422.073,312.971 424.5,317.5C 424.376,318.107 424.043,318.44 423.5,318.5C 421.219,317.392 419.052,316.058 417,314.5C 414.658,308.826 411.492,303.659 407.5,299C 406.365,298.251 405.365,298.417 404.5,299.5C 407.758,303.264 410.425,307.431 412.5,312C 410.212,311.947 407.879,311.614 405.5,311C 403.158,307.692 400.991,304.192 399,300.5C 397.31,297.976 395.143,295.976 392.5,294.5C 391.461,297.047 392.295,299.047 395,300.5C 396.741,303.309 397.908,306.309 398.5,309.5C 397.833,309.5 397.167,309.5 396.5,309.5C 395.833,309.5 395.167,309.5 394.5,309.5C 393.448,309.649 392.448,309.483 391.5,309C 389.606,303.041 385.94,298.541 380.5,295.5C 379.479,296.002 379.312,296.668 380,297.5C 383.112,300.774 385.612,304.44 387.5,308.5C 385.636,309.793 383.636,309.793 381.5,308.5C 379.852,303.687 376.686,300.353 372,298.5C 370.743,298.85 370.409,299.517 371,300.5C 373.933,302.764 376.1,305.598 377.5,309C 374.773,309.818 372.106,309.652 369.5,308.5C 367.958,305.204 365.624,303.871 362.5,304.5C 363.648,306.149 364.981,307.649 366.5,309C 364.421,309.808 362.421,309.641 360.5,308.5C 359.564,307.026 358.23,306.026 356.5,305.5C 355.261,307.007 355.595,308.174 357.5,309C 353.43,309.221 349.43,308.721 345.5,307.5C 349.673,305.66 354.007,303.994 358.5,302.5C 365.151,299.106 371.817,295.606 378.5,292C 381.793,291.174 385.126,290.674 388.5,290.5 Z M 393.5,314.5 C 395.604,314.201 397.604,314.534 399.5,315.5C 396.158,321.677 391.158,325.843 384.5,328C 385.108,328.87 385.941,329.37 387,329.5C 394.752,327.081 400.752,322.415 405,315.5C 407.413,316.024 409.58,317.024 411.5,318.5C 408.475,323.692 404.308,327.692 399,330.5C 398.568,331.6 399.068,332.267 400.5,332.5C 406.741,330.544 411.741,326.878 415.5,321.5C 416.325,320.614 417.325,320.281 418.5,320.5C 420.151,321.97 421.985,323.303 424,324.5C 419.926,332.338 413.426,337.504 404.5,340C 382.315,338.576 363.648,329.576 348.5,313C 351.57,313.015 354.57,313.682 357.5,315C 356.663,316.011 356.33,317.178 356.5,318.5C 358.986,317.871 361.319,316.871 363.5,315.5C 364.5,315.667 365.5,315.833 366.5,316C 365.643,316.689 364.977,317.522 364.5,318.5C 366.86,319.172 368.86,318.339 370.5,316C 372.167,315.333 373.833,315.333 375.5,316C 373.667,317.833 371.833,319.667 370,321.5C 369.409,322.483 369.743,323.15 371,323.5C 375.093,321.408 378.593,318.575 381.5,315C 382.944,314.219 384.277,314.386 385.5,315.5C 382.605,319.306 379.272,322.64 375.5,325.5C 374.167,326.5 374.167,327.5 375.5,328.5C 381.433,325.533 386.1,321.2 389.5,315.5C 390.689,314.571 392.022,314.238 393.5,314.5 Z M 424.5,332.5 C 425.965,333.406 426.965,334.739 427.5,336.5C 423.589,337.858 419.923,339.692 416.5,342C 414.579,343.241 414.246,344.741 415.5,346.5C 418.56,344.304 421.893,342.637 425.5,341.5C 428.082,341.747 428.915,343.08 428,345.5C 423.267,346.189 418.767,347.689 414.5,350C 412.789,351.133 412.289,352.633 413,354.5C 417.222,350.948 422.055,349.781 427.5,351C 426.663,352.011 426.33,353.178 426.5,354.5C 423.276,354.203 420.276,354.87 417.5,356.5C 416.614,357.325 416.281,358.325 416.5,359.5C 418.937,359.244 421.271,358.577 423.5,357.5C 424.386,358.325 424.719,359.325 424.5,360.5C 420.942,360.405 417.942,361.572 415.5,364C 415.833,364.5 416.167,365 416.5,365.5C 418.198,364.319 419.865,364.319 421.5,365.5C 420.055,367.063 418.389,368.396 416.5,369.5C 417.376,370.251 418.376,370.751 419.5,371C 418.333,372.833 416.833,374.333 415,375.5C 409.545,363.917 409.212,352.25 414,340.5C 417.299,337.449 420.799,334.782 424.5,332.5 Z M 431.5,336.5 C 433.914,337.911 435.581,339.911 436.5,342.5C 433.504,341.526 431.837,339.526 431.5,336.5 Z M 431.5,343.5 C 433.809,344.388 435.476,346.054 436.5,348.5C 437.689,349.429 439.022,349.762 440.5,349.5C 441.869,354.969 441.369,360.302 439,365.5C 434.027,371.14 428.694,376.473 423,381.5C 420.766,387.964 419.766,387.63 420,380.5C 420.221,377.057 421.221,376.724 423,379.5C 422.947,377.064 423.113,374.731 423.5,372.5C 424.167,373.167 424.833,373.833 425.5,374.5C 426.578,372.525 426.245,370.692 424.5,369C 425.126,368.25 425.626,367.416 426,366.5C 427.5,368 429,369.5 430.5,371C 431.332,371.688 431.998,371.521 432.5,370.5C 430.701,367.733 429.034,364.899 427.5,362C 427.85,360.743 428.517,360.409 429.5,361C 431.351,362.684 433.018,364.517 434.5,366.5C 434.833,365.833 435.167,365.167 435.5,364.5C 433.437,360.796 431.437,357.129 429.5,353.5C 433.159,354.315 435.826,356.481 437.5,360C 438.6,360.432 439.267,359.932 439.5,358.5C 438.315,354.644 435.982,351.644 432.5,349.5C 431.534,347.604 431.201,345.604 431.5,343.5 Z M 415.5,376.5 C 418.684,376.332 419.184,377.666 417,380.5C 416.209,379.255 415.709,377.922 415.5,376.5 Z"/></g>
<g><path style="opacity:0.991" fill="#060606" d="M 493.5,236.5 C 492.91,237.766 492.41,239.099 492,240.5C 489.333,239.167 487.333,237.167 486,234.5C 484.076,234.652 482.242,234.652 480.5,234.5C 472.266,230.645 463.599,228.645 454.5,228.5C 452.983,228.511 451.816,229.177 451,230.5C 450.667,230.167 450.333,229.833 450,229.5C 449.671,233.04 447.838,234.206 444.5,233C 445.376,231.415 446.709,230.415 448.5,230C 447.833,229.667 447.167,229.333 446.5,229C 447.823,228.184 448.489,227.017 448.5,225.5C 449.122,223.665 450.456,222.498 452.5,222C 468.447,220.813 482.113,225.646 493.5,236.5 Z"/></g>
<g><path style="opacity:0.722" fill="#030303" d="M 493.5,236.5 C 494.416,236.982 495.416,237.315 496.5,237.5C 504.134,234.365 511.467,234.865 518.5,239C 521.717,242.896 523.383,247.396 523.5,252.5C 525.428,266.197 528.095,279.864 531.5,293.5C 533.865,298.793 534.865,304.46 534.5,310.5C 535.955,320.762 531.621,326.929 521.5,329C 517.886,329.936 514.22,330.436 510.5,330.5C 510.706,333.495 510.04,336.162 508.5,338.5C 507.448,338.351 506.448,338.517 505.5,339C 505.835,340.503 505.835,341.836 505.5,343C 502.928,346.774 500.428,350.608 498,354.5C 497.13,353.892 496.63,353.059 496.5,352C 498.881,350.137 499.548,347.971 498.5,345.5C 500.588,341.083 502.588,336.583 504.5,332C 504,331.5 503.5,331 503,330.5C 492.672,334.579 482.505,339.079 472.5,344C 457.234,348.537 447.234,343.37 442.5,328.5C 442.435,328.062 442.601,327.728 443,327.5C 444.758,328.469 445.258,329.636 444.5,331C 446.281,333.04 448.281,333.54 450.5,332.5C 454.747,336.152 459.747,337.818 465.5,337.5C 474.654,337.502 482.987,335.002 490.5,330C 489.584,329.626 488.75,329.126 488,328.5C 483.251,329.305 478.418,329.805 473.5,330C 475.256,330.202 476.922,330.702 478.5,331.5C 478,331.833 477.5,332.167 477,332.5C 473.282,331.904 469.616,331.238 466,330.5C 464.927,331.28 463.76,331.113 462.5,330C 463.833,329.333 463.833,328.667 462.5,328C 459.109,325.94 455.776,324.607 452.5,324C 446.272,317.201 442.272,309.534 440.5,301C 438.765,296.768 438.098,292.601 438.5,288.5C 438.5,287.833 438.167,287.5 437.5,287.5C 437.719,286.325 437.386,285.325 436.5,284.5C 433.888,285.779 431.555,287.445 429.5,289.5C 433.13,291.455 435.13,294.455 435.5,298.5C 434.5,300.167 433.167,301.5 431.5,302.5C 428.521,300.188 425.854,297.521 423.5,294.5C 422.5,293.167 421.5,293.167 420.5,294.5C 419.143,292.435 417.81,290.435 416.5,288.5C 416.5,286.833 416.5,285.167 416.5,283.5C 419.14,283.046 421.473,281.879 423.5,280C 426.833,276.667 430.167,273.333 433.5,270C 433.167,269.667 432.833,269.333 432.5,269C 434.215,268.223 435.215,266.89 435.5,265C 435.192,261.86 435.692,258.694 437,255.5C 438.016,254.366 438.683,254.699 439,256.5C 439.502,253.487 440.002,250.487 440.5,247.5C 441.423,248.303 442.423,248.47 443.5,248C 442.167,247 442.167,246 443.5,245C 441.378,243.262 441.545,241.428 444,239.5C 444.333,239.833 444.667,240.167 445,240.5C 445.29,238.956 445.956,237.623 447,236.5C 447.77,237.598 448.603,237.598 449.5,236.5C 446.277,251.062 442.277,265.395 437.5,279.5C 441.912,278.93 445.078,276.597 447,272.5C 448.929,265.379 451.263,258.379 454,251.5C 460.341,241.686 469.174,238.686 480.5,242.5C 483.454,242.709 486.121,242.042 488.5,240.5C 485.765,238.479 483.099,236.479 480.5,234.5C 482.242,234.652 484.076,234.652 486,234.5C 487.333,237.167 489.333,239.167 492,240.5C 492.41,239.099 492.91,237.766 493.5,236.5 Z M 471.5,256.5 C 470.328,258.539 468.662,259.872 466.5,260.5C 465.279,261.028 464.113,261.695 463,262.5C 461.593,266.986 459.426,270.986 456.5,274.5C 455.817,274.137 455.15,273.804 454.5,273.5C 454.663,266.852 456.163,260.518 459,254.5C 462.672,249.016 467.838,246.849 474.5,248C 480.916,249.359 486.916,251.693 492.5,255C 488.66,255.406 484.827,255.239 481,254.5C 477.708,254.655 474.541,255.322 471.5,256.5 Z M 524.5,292.5 C 524.788,295.939 525.454,299.272 526.5,302.5C 528.462,307.204 528.629,311.871 527,316.5C 524.592,318.956 521.759,320.789 518.5,322C 504.881,323.573 491.214,323.906 477.5,323C 481.706,314.885 487.706,308.551 495.5,304C 495.167,303.667 494.833,303.333 494.5,303C 498.833,302.667 503.167,302.333 507.5,302C 510.953,300.272 512.786,297.438 513,293.5C 513.819,287.319 513.653,281.319 512.5,275.5C 512.795,273.265 512.461,271.265 511.5,269.5C 509.808,256.64 502.475,249.14 489.5,247C 495.169,245.129 501.002,243.629 507,242.5C 510.072,243.036 512.739,244.37 515,246.5C 517.76,262.04 520.927,277.373 524.5,292.5 Z M 501.5,294.5 C 502.469,275.968 493.802,267.468 475.5,269C 471.127,270.713 467.293,273.213 464,276.5C 465.707,268.126 470.874,262.959 479.5,261C 501.694,258.196 510.194,267.696 505,289.5C 504.777,291.881 503.61,293.547 501.5,294.5 Z M 480.5,272.5 C 486.195,274.098 491.028,277.098 495,281.5C 496.301,283.365 496.635,285.365 496,287.5C 490.036,277.185 482.203,275.685 472.5,283C 466.324,288.031 465.991,293.364 471.5,299C 470.975,299.692 470.308,300.192 469.5,300.5C 464.082,297.418 460.082,293.085 457.5,287.5C 459.33,284.839 461.663,282.672 464.5,281C 469.81,277.849 475.143,275.015 480.5,272.5 Z M 454.5,273.5 C 454.937,275.074 455.937,276.241 457.5,277C 456.809,278.067 456.309,279.234 456,280.5C 455.333,279.167 454.667,279.167 454,280.5C 453.204,277.961 453.371,275.628 454.5,273.5 Z M 447.5,279.5 C 449.289,283.265 450.789,287.265 452,291.5C 457.691,301.939 466.524,307.772 478.5,309C 470.859,324.297 462.026,325.13 452,311.5C 446.7,301.359 445.2,290.692 447.5,279.5 Z M 483.5,283.5 C 486.287,284.378 487.62,286.378 487.5,289.5C 487.429,292.74 485.929,295.073 483,296.5C 483.476,293.84 484.31,291.174 485.5,288.5C 484.826,286.805 484.159,285.138 483.5,283.5 Z M 477.5,299.5 C 473.748,297.286 472.581,293.953 474,289.5C 476.332,284.485 478.832,284.319 481.5,289C 480.842,290.905 479.675,292.405 478,293.5C 477.505,295.473 477.338,297.473 477.5,299.5 Z M 489.5,285.5 C 491.735,286.286 492.735,287.952 492.5,290.5C 492.41,297.045 489.243,301.045 483,302.5C 480.601,302.387 478.768,301.387 477.5,299.5C 487.733,299.944 491.733,295.278 489.5,285.5 Z"/></g>
<g><path style="opacity:0.004" fill="#000000" d="M 481.5,251.5 C 483.337,251.639 483.67,252.306 482.5,253.5C 481.702,253.043 481.369,252.376 481.5,251.5 Z"/></g>
<g><path style="opacity:0.997" fill="#090909" d="M 523.5,252.5 C 523.082,253.222 522.416,253.722 521.5,254C 524.028,255.017 524.028,256.184 521.5,257.5C 521.846,258.696 522.346,258.696 523,257.5C 523.5,258.5 524,259.5 524.5,260.5C 523.809,264.476 523.809,268.476 524.5,272.5C 523.328,272.081 522.328,271.415 521.5,270.5C 521.421,268.071 521.755,265.571 522.5,263C 521.672,262.085 520.672,261.419 519.5,261C 520.482,257.707 520.482,254.707 519.5,252C 516.833,251.333 516.833,250.667 519.5,250C 518.874,249.25 518.374,248.416 518,247.5C 516.334,248.34 516.167,247.84 517.5,246C 516.044,245.577 515.544,244.744 516,243.5C 517.067,244.191 518.234,244.691 519.5,245C 520.082,247.974 521.415,250.474 523.5,252.5 Z"/></g>
<g><path style="opacity:0.994" fill="#080808" d="M 511.5,269.5 C 512.461,271.265 512.795,273.265 512.5,275.5C 511.922,277.443 510.922,277.777 509.5,276.5C 508.138,274.988 507.804,273.488 508.5,272C 506.193,271.646 505.859,270.646 507.5,269C 507.138,267.775 506.638,266.609 506,265.5C 505.667,265.833 505.333,266.167 505,266.5C 504.801,264.598 503.967,263.098 502.5,262C 503.336,260.757 503.003,259.59 501.5,258.5C 500.325,259.855 499.325,259.688 498.5,258C 498.833,257.667 499.167,257.333 499.5,257C 497.032,255.412 496.866,253.578 499,251.5C 501.828,253.368 504.328,255.534 506.5,258C 506.167,258.333 505.833,258.667 505.5,259C 508.539,261.449 509.539,264.449 508.5,268C 509.244,269.039 510.244,269.539 511.5,269.5 Z"/></g>
<g><path style="opacity:0.004" fill="#000000" d="M 437.5,287.5 C 438.167,287.5 438.5,287.833 438.5,288.5C 438.44,289.043 438.107,289.376 437.5,289.5C 436.227,288.743 436.227,288.077 437.5,287.5 Z"/></g>
<g><path style="opacity:0.265" fill="#0a0c07" d="M 395.5,290.5 C 393.167,290.5 390.833,290.5 388.5,290.5C 388.082,289.778 387.416,289.278 386.5,289C 387.416,288.626 388.25,288.126 389,287.5C 389.804,288.804 390.971,289.471 392.5,289.5C 394.417,288.097 395.417,288.43 395.5,290.5 Z"/></g>
<g><path style="opacity:0.686" fill="#070707" d="M 531.5,293.5 C 531.649,297.351 531.649,301.184 531.5,305C 532.167,305.333 532.833,305.667 533.5,306C 531.213,307.427 530.88,309.261 532.5,311.5C 531.833,312.833 531.167,312.833 530.5,311.5C 530.242,309.424 529.742,307.091 529,304.5C 528.292,303.619 527.458,302.953 526.5,302.5C 525.454,299.272 524.788,295.939 524.5,292.5C 524.498,290.429 524.831,288.262 525.5,286C 522.608,281.931 523.108,281.097 527,283.5C 528.294,284.854 528.46,286.188 527.5,287.5C 528.66,289.711 529.993,291.711 531.5,293.5 Z"/></g>
<g><path style="opacity:0.624" fill="#070a06" d="M 416.5,304.5 C 411.804,300.479 406.804,296.812 401.5,293.5C 401.783,292.711 402.283,292.044 403,291.5C 408.361,295.057 412.861,299.39 416.5,304.5 Z"/></g>
<g><path style="opacity:1" fill="#050604" d="M 353.5,297.5 C 355.745,297.541 356.412,298.375 355.5,300C 356.571,300.852 357.571,301.685 358.5,302.5C 354.007,303.994 349.673,305.66 345.5,307.5C 345.565,307.938 345.399,308.272 345,308.5C 342.833,307 343,305.833 345.5,305C 344.874,304.25 344.374,303.416 344,302.5C 342.407,304.285 340.907,304.452 339.5,303C 341.129,302.415 342.629,301.581 344,300.5C 345.922,302.105 347.089,301.772 347.5,299.5C 349.302,298.542 351.302,297.875 353.5,297.5 Z"/></g>
<g><path style="opacity:0.604" fill="#040603" d="M 394.5,309.5 C 392.006,311.077 390.173,310.41 389,307.5C 388.617,308.056 388.117,308.389 387.5,308.5C 385.612,304.44 383.112,300.774 380,297.5C 379.312,296.668 379.479,296.002 380.5,295.5C 385.94,298.541 389.606,303.041 391.5,309C 392.448,309.483 393.448,309.649 394.5,309.5 Z"/></g>
<g><path style="opacity:0.823" fill="#040503" d="M 423.5,318.5 C 421.666,317.971 419.999,318.637 418.5,320.5C 417.325,320.281 416.325,320.614 415.5,321.5C 411.741,326.878 406.741,330.544 400.5,332.5C 399.068,332.267 398.568,331.6 399,330.5C 404.308,327.692 408.475,323.692 411.5,318.5C 409.58,317.024 407.413,316.024 405,315.5C 400.752,322.415 394.752,327.081 387,329.5C 385.941,329.37 385.108,328.87 384.5,328C 391.158,325.843 396.158,321.677 399.5,315.5C 397.604,314.534 395.604,314.201 393.5,314.5C 394.752,312.999 395.752,311.332 396.5,309.5C 397.167,309.5 397.833,309.5 398.5,309.5C 397.908,306.309 396.741,303.309 395,300.5C 392.295,299.047 391.461,297.047 392.5,294.5C 395.143,295.976 397.31,297.976 399,300.5C 400.991,304.192 403.158,307.692 405.5,311C 407.879,311.614 410.212,311.947 412.5,312C 410.425,307.431 407.758,303.264 404.5,299.5C 405.365,298.417 406.365,298.251 407.5,299C 411.492,303.659 414.658,308.826 417,314.5C 419.052,316.058 421.219,317.392 423.5,318.5 Z"/></g>
<g><path style="opacity:1" fill="#080808" d="M 476.5,356.5 C 475.791,357.404 474.791,357.737 473.5,357.5C 471.213,356.645 468.88,356.478 466.5,357C 469.983,355.092 473.483,353.259 477,351.5C 480.703,352.088 484.203,353.255 487.5,355C 486,355.5 484.5,356 483,356.5C 480.717,355.189 478.551,354.522 476.5,354.5C 475.537,354.97 475.537,355.637 476.5,356.5 Z"/></g>
<g><path style="opacity:1" fill="#090909" d="M 449.5,354.5 C 454.155,355.461 458.988,355.461 464,354.5C 464.309,355.766 464.809,356.933 465.5,358C 461.5,358.667 457.5,358.667 453.5,358C 452.675,356.312 451.675,356.145 450.5,357.5C 448.481,356.867 448.147,355.867 449.5,354.5 Z"/></g>
</svg>
